#N canvas 0 50 1366 695 10;
#X obj 327 346 hradio 15 1 0 4 empty empty empty 0 -8 0 10 -262144
-1 -1 3;
#X obj 477 12 loadbang;
#X obj 56 122 mod \$1;
#X obj 91 93 + 1;
#X obj 56 61 r click;
#X obj 530 306 s \$0-strip;
#X obj 56 93 f 0;
#X obj 327 208 prepend number;
#X obj 629 307 namecanvas \$0-strip;
#X obj 477 57 f \$1;
#X obj 530 171 * 20;
#X obj 102 588 outlet;
#X obj 477 114 moses 20;
#X obj 477 142 t b;
#X obj 530 145 - 11;
#X obj 928 52 inlet;
#X obj 102 360 * \$2;
#X obj 102 392 + \$3;
#X msg 795 181 \; \$1-a resize \$2;
#X obj 795 156 pack 0 0;
#X obj 795 100 t b f;
#X obj 795 133 f \$0;
#X obj 928 117 s \$0-a;
#X obj 56 286 moses 0;
#X obj 530 195 + 240;
#X obj 477 195 i 240;
#X obj 305 347 tgl 15 0 empty empty empty 17 7 0 10 -262144 -1 -1 1
1;
#X obj 543 14 bng 15 250 50 0 empty empty empty 17 7 0 10 -262144 -1
-1;
#X msg 530 265 donecanvasdialog 0 0 2 0 -1 1 1 \$1 \$2 300 335 \, dirty
0;
#X obj 595 114 r \$0-height;
#X obj 595 194 t b i;
#X obj 194 396 sel 0 1;
#X msg 227 464 200;
#X obj 194 512 s \$0-height;
#X msg 194 464 40;
#X obj 530 239 pack 0 40;
#X obj 927 139 r \$0-height;
#X obj 927 184 sel 40 200;
#X msg 927 211 0;
#X msg 960 211 2;
#N canvas 24 157 1366 695 \$0-arrCont 0;
#X obj 228 10 namecanvas \$0-arrCont;
#N canvas 0 50 450 250 (subpatch) 0;
#X array \$0-a 4 float 2;
#X coords 0 1 4 -1 200 140 2 0 0;
#X restore 3 14 graph;
#X coords 0 1 2 -1 210 160 2 0 0;
#X restore 315 372 pd \$0-arrCont;
#X obj 927 293 s \$0-arrCont;
#X msg 927 264 donecanvasdialog 0 0 \$1 0 1 2 -1 210 160 0 \, dirty
0;
#X msg 305 165 0;
#X obj 56 243 tabread \$0-a;
#X obj 928 86 prepend 0;
#X connect 1 0 9 0;
#X connect 1 0 43 0;
#X connect 2 0 0 0;
#X connect 2 0 44 0;
#X connect 3 0 6 1;
#X connect 4 0 6 0;
#X connect 6 0 3 0;
#X connect 6 0 2 0;
#X connect 7 0 0 0;
#X connect 9 0 7 0;
#X connect 9 0 12 0;
#X connect 9 0 20 0;
#X connect 10 0 24 0;
#X connect 12 0 13 0;
#X connect 12 1 14 0;
#X connect 13 0 25 0;
#X connect 14 0 10 0;
#X connect 15 0 45 0;
#X connect 16 0 17 0;
#X connect 17 0 11 0;
#X connect 19 0 18 0;
#X connect 20 0 21 0;
#X connect 20 1 19 1;
#X connect 21 0 19 0;
#X connect 23 1 16 0;
#X connect 24 0 35 0;
#X connect 25 0 35 0;
#X connect 26 0 31 0;
#X connect 27 0 9 0;
#X connect 28 0 5 0;
#X connect 29 0 30 0;
#X connect 30 0 35 0;
#X connect 30 1 35 1;
#X connect 31 0 34 0;
#X connect 31 1 32 0;
#X connect 32 0 33 0;
#X connect 34 0 33 0;
#X connect 35 0 28 0;
#X connect 36 0 37 0;
#X connect 37 0 38 0;
#X connect 37 1 39 0;
#X connect 38 0 42 0;
#X connect 39 0 42 0;
#X connect 42 0 41 0;
#X connect 43 0 26 0;
#X connect 44 0 23 0;
#X connect 45 0 22 0;
#X coords 0 -1 1 1 240 200 2 300 335;
